HIERARCHY
ROOT newVegas:Hips
{
	OFFSET 0.000000 96.479958 0.000000
	CHANNELS 6 Xposition Yposition Zposition Xrotation Yrotation Zrotation
	JOINT newVegas:Pelvis
	{
		OFFSET 0.000000 0.000000 0.000000
		CHANNELS 3 Xrotation Yrotation Zrotation
		JOINT newVegas:LeftUpLeg
		{
			OFFSET 18.735201 -5.666702 -4.541200
			CHANNELS 3 Xrotation Yrotation Zrotation
			JOINT newVegas:LeftLeg
			{
				OFFSET -0.021200 -31.938179 0.493100
				CHANNELS 3 Xrotation Yrotation Zrotation
				JOINT newVegas:LeftFoot
				{
					OFFSET 0.021200 -31.938179 -4.336299
					CHANNELS 3 Xrotation Yrotation Zrotation
					JOINT newVegas:LeftToeBase
					{
						OFFSET 0.943001 -26.722000 15.023500
						CHANNELS 3 Xrotation Yrotation Zrotation
						End Site
						{
							OFFSET 0.000000 30.670183 0.000000
						}
					}
				}
				JOINT newVegas:Left_PantLeg
				{
					OFFSET 0.663870 -9.044666 -1.108900
					CHANNELS 3 Xrotation Yrotation Zrotation
					End Site
					{
						OFFSET 1.415995 20.635357 0.000000
					}
				}
			}
		}
		JOINT newVegas:RightUpLeg
		{
			OFFSET -18.735201 -5.666702 -4.541200
			CHANNELS 3 Xrotation Yrotation Zrotation
			JOINT newVegas:RightLeg
			{
				OFFSET 0.018946 -31.938133 0.493100
				CHANNELS 3 Xrotation Yrotation Zrotation
				JOINT newVegas:RightFoot
				{
					OFFSET -0.018946 -31.938126 -4.336299
					CHANNELS 3 Xrotation Yrotation Zrotation
					JOINT newVegas:RightToeBase
					{
						OFFSET -0.943001 -26.722004 15.023500
						CHANNELS 3 Xrotation Yrotation Zrotation
						End Site
						{
							OFFSET 0.000000 30.670187 0.000000
						}
					}
				}
				JOINT newVegas:Right_PantLeg
				{
					OFFSET -0.661674 -9.044716 -1.108900
					CHANNELS 3 Xrotation Yrotation Zrotation
					End Site
					{
						OFFSET -1.415958 20.635269 0.000000
					}
				}
			}
		}
	}
	JOINT newVegas:Spine
	{
		OFFSET 0.000000 10.199997 -0.299500
		CHANNELS 3 Xrotation Yrotation Zrotation
		JOINT newVegas:Spine1
		{
			OFFSET 0.000000 11.900002 -1.516600
			CHANNELS 3 Xrotation Yrotation Zrotation
			JOINT newVegas:Spine2
			{
				OFFSET 0.000000 13.600006 -2.842500
				CHANNELS 3 Xrotation Yrotation Zrotation
				JOINT newVegas:Neck
				{
					OFFSET 0.000000 9.624100 -2.890100
					CHANNELS 3 Xrotation Yrotation Zrotation
					JOINT newVegas:Head
					{
						OFFSET 0.000000 14.068802 -1.351900
						CHANNELS 3 Xrotation Yrotation Zrotation
						JOINT newVegas:Hair_Back
						{
							OFFSET 0.000000 3.231903 -17.524799
							CHANNELS 3 Xrotation Yrotation Zrotation
							End Site
							{
								OFFSET 0.000000 19.849884 0.000000
							}
						}
						JOINT newVegas:Hair_Front
						{
							OFFSET 0.000000 31.260406 4.573800
							CHANNELS 3 Xrotation Yrotation Zrotation
							JOINT newVegas:Hair_Front1
							{
								OFFSET 0.000000 2.284103 11.993300
								CHANNELS 3 Xrotation Yrotation Zrotation
								JOINT newVegas:Hair_Front2
								{
									OFFSET 0.000000 2.284103 11.993300
									CHANNELS 3 Xrotation Yrotation Zrotation
									End Site
									{
										OFFSET 0.000000 12.208862 0.000000
									}
								}
							}
						}
						JOINT newVegas:Jowel
						{
							OFFSET 0.000000 -7.458206 6.864100
							CHANNELS 3 Xrotation Yrotation Zrotation
							End Site
							{
								OFFSET 0.000000 19.849884 0.000000
							}
						}
					}
				}
				JOINT newVegas:LeftShoulder
				{
					OFFSET 15.263000 10.923401 -0.547700
					CHANNELS 3 Xrotation Yrotation Zrotation
					JOINT newVegas:LeftArm
					{
						OFFSET 25.438599 -2.830597 -13.032500
						CHANNELS 3 Xrotation Yrotation Zrotation
						JOINT newVegas:LeftForeArm
						{
							OFFSET 29.960503 0.000000 0.000000
							CHANNELS 3 Xrotation Yrotation Zrotation
							JOINT newVegas:LeftHand
							{
								OFFSET 27.849251 0.000000 0.000000
								CHANNELS 3 Xrotation Yrotation Zrotation
								JOINT newVegas:LeftHandThumb1
								{
									OFFSET 4.487587 -3.305161 6.305391
									CHANNELS 3 Xrotation Yrotation Zrotation
									JOINT newVegas:LeftHandThumb2
									{
										OFFSET 5.480453 -3.164139 3.164143
										CHANNELS 3 Xrotation Yrotation Zrotation
										JOINT newVegas:LeftHandThumb3
										{
											OFFSET 5.159721 -2.978973 2.978967
											CHANNELS 3 Xrotation Yrotation Zrotation
											End Site
											{
												OFFSET 2.494507 5.926697 1.738678
											}
										}
									}
								}
								JOINT newVegas:LeftHandIndex1
								{
									OFFSET 18.578728 -0.527832 5.208049
									CHANNELS 3 Xrotation Yrotation Zrotation
									JOINT newVegas:LeftHandIndex2
									{
										OFFSET 3.192009 0.000000 0.000000
										CHANNELS 3 Xrotation Yrotation Zrotation
										JOINT newVegas:LeftHandIndex3
										{
											OFFSET 3.835129 0.000000 0.000000
											CHANNELS 3 Xrotation Yrotation Zrotation
											End Site
											{
												OFFSET -0.034599 3.816971 0.371180
											}
										}
									}
								}
								JOINT newVegas:LeftHandMiddle1
								{
									OFFSET 18.476105 0.000000 0.000000
									CHANNELS 3 Xrotation Yrotation Zrotation
									JOINT newVegas:LeftHandMiddle2
									{
										OFFSET 3.324875 0.000000 0.000000
										CHANNELS 3 Xrotation Yrotation Zrotation
										JOINT newVegas:LeftHandMiddle3
										{
											OFFSET 4.596550 0.000000 0.000000
											CHANNELS 3 Xrotation Yrotation Zrotation
											End Site
											{
												OFFSET 0.057701 4.578827 0.399218
											}
										}
									}
								}
								JOINT newVegas:LeftHandRing1
								{
									OFFSET 17.732719 0.121887 -4.201567
									CHANNELS 3 Xrotation Yrotation Zrotation
									JOINT newVegas:LeftHandRing2
									{
										OFFSET 2.733170 0.000000 0.000000
										CHANNELS 3 Xrotation Yrotation Zrotation
										JOINT newVegas:LeftHandRing3
										{
											OFFSET 3.178268 0.000000 0.000000
											CHANNELS 3 Xrotation Yrotation Zrotation
											End Site
											{
												OFFSET 0.119102 3.170624 0.185394
											}
										}
									}
								}
								JOINT newVegas:LeftHandPinky1
								{
									OFFSET 15.989624 -0.606689 -7.535461
									CHANNELS 3 Xrotation Yrotation Zrotation
									JOINT newVegas:LeftHandPinky2
									{
										OFFSET 2.538986 0.000000 0.000000
										CHANNELS 3 Xrotation Yrotation Zrotation
										JOINT newVegas:LeftHandPinky3
										{
											OFFSET 2.593102 0.000000 0.000000
											CHANNELS 3 Xrotation Yrotation Zrotation
											End Site
											{
												OFFSET -0.150902 2.584198 0.152708
											}
										}
									}
								}
							}
							JOINT newVegas:Left_Sleeve
							{
								OFFSET 0.267448 -0.649796 0.577675
								CHANNELS 3 Xrotation Yrotation Zrotation
								End Site
								{
									OFFSET 0.000000 15.991241 0.000000
								}
							}
							JOINT newVegas:Left_CapeC
							{
								OFFSET 15.715958 -8.608795 -6.935905
								CHANNELS 3 Xrotation Yrotation Zrotation
								JOINT newVegas:Left_CapeC1
								{
									OFFSET 0.000000 -8.688499 0.000000
									CHANNELS 3 Xrotation Yrotation Zrotation
									End Site
									{
										OFFSET 0.000000 8.688499 0.000000
									}
								}
							}
						}
						JOINT newVegas:Left_CapeB
						{
							OFFSET 26.118385 -8.608795 -7.079235
							CHANNELS 3 Xrotation Yrotation Zrotation
							JOINT newVegas:Left_CapeB1
							{
								OFFSET 0.000000 -8.688499 0.000000
								CHANNELS 3 Xrotation Yrotation Zrotation
								End Site
								{
									OFFSET 0.000000 8.688499 0.000000
								}
							}
						}
						JOINT newVegas:Left_CapeA
						{
							OFFSET 5.115639 -8.608795 -10.395809
							CHANNELS 3 Xrotation Yrotation Zrotation
							JOINT newVegas:Left_CapeA1
							{
								OFFSET 0.000000 -8.688499 0.000000
								CHANNELS 3 Xrotation Yrotation Zrotation
								End Site
								{
									OFFSET 0.000000 8.688499 0.000000
								}
							}
						}
					}
				}
				JOINT newVegas:RightShoulder
				{
					OFFSET -15.263000 10.923401 -0.547700
					CHANNELS 3 Xrotation Yrotation Zrotation
					JOINT newVegas:RightArm
					{
						OFFSET -25.438599 -2.830597 -13.032500
						CHANNELS 3 Xrotation Yrotation Zrotation
						JOINT newVegas:RightForeArm
						{
							OFFSET -29.960503 0.000000 0.000000
							CHANNELS 3 Xrotation Yrotation Zrotation
							JOINT newVegas:RightHand
							{
								OFFSET -27.849251 0.000000 0.000000
								CHANNELS 3 Xrotation Yrotation Zrotation
								JOINT newVegas:RightHandThumb1
								{
									OFFSET -4.487587 -3.305161 6.305391
									CHANNELS 3 Xrotation Yrotation Zrotation
									JOINT newVegas:RightHandThumb2
									{
										OFFSET -5.480453 -3.164139 3.164143
										CHANNELS 3 Xrotation Yrotation Zrotation
										JOINT newVegas:RightHandThumb3
										{
											OFFSET -5.159721 -2.978973 2.978967
											CHANNELS 3 Xrotation Yrotation Zrotation
											End Site
											{
												OFFSET -2.494507 5.926697 1.738678
											}
										}
									}
								}
								JOINT newVegas:RightHandIndex1
								{
									OFFSET -18.578728 -0.527832 5.208049
									CHANNELS 3 Xrotation Yrotation Zrotation
									JOINT newVegas:RightHandIndex2
									{
										OFFSET -3.192009 0.000000 0.000000
										CHANNELS 3 Xrotation Yrotation Zrotation
										JOINT newVegas:RightHandIndex3
										{
											OFFSET -3.835129 0.000000 0.000000
											CHANNELS 3 Xrotation Yrotation Zrotation
											End Site
											{
												OFFSET 0.034599 3.816971 0.371180
											}
										}
									}
								}
								JOINT newVegas:RightHandMiddle1
								{
									OFFSET -18.476105 0.000000 0.000000
									CHANNELS 3 Xrotation Yrotation Zrotation
									JOINT newVegas:RightHandMiddle2
									{
										OFFSET -3.324875 0.000000 0.000000
										CHANNELS 3 Xrotation Yrotation Zrotation
										JOINT newVegas:RightHandMiddle3
										{
											OFFSET -4.596550 0.000000 0.000000
											CHANNELS 3 Xrotation Yrotation Zrotation
											End Site
											{
												OFFSET -0.057701 4.578827 0.399218
											}
										}
									}
								}
								JOINT newVegas:RightHandRing1
								{
									OFFSET -17.732719 0.121887 -4.201567
									CHANNELS 3 Xrotation Yrotation Zrotation
									JOINT newVegas:RightHandRing2
									{
										OFFSET -2.733170 0.000000 0.000000
										CHANNELS 3 Xrotation Yrotation Zrotation
										JOINT newVegas:RightHandRing3
										{
											OFFSET -3.178268 0.000000 0.000000
											CHANNELS 3 Xrotation Yrotation Zrotation
											End Site
											{
												OFFSET -0.119102 3.170624 0.185394
											}
										}
									}
								}
								JOINT newVegas:RightHandPinky1
								{
									OFFSET -15.989624 -0.606689 -7.535461
									CHANNELS 3 Xrotation Yrotation Zrotation
									JOINT newVegas:RightHandPinky2
									{
										OFFSET -2.538986 0.000000 0.000000
										CHANNELS 3 Xrotation Yrotation Zrotation
										JOINT newVegas:RightHandPinky3
										{
											OFFSET -2.593102 0.000000 0.000000
											CHANNELS 3 Xrotation Yrotation Zrotation
											End Site
											{
												OFFSET 0.150902 2.584198 0.152708
											}
										}
									}
								}
							}
							JOINT newVegas:Right_CapeC
							{
								OFFSET -15.715958 -8.608795 -6.935905
								CHANNELS 3 Xrotation Yrotation Zrotation
								JOINT newVegas:Right_CapeC1
								{
									OFFSET 0.000000 -8.688499 0.000000
									CHANNELS 3 Xrotation Yrotation Zrotation
									End Site
									{
										OFFSET 0.000000 8.688499 0.000000
									}
								}
							}
							JOINT newVegas:Right_Sleeve
							{
								OFFSET -0.267448 -0.649994 0.577675
								CHANNELS 3 Xrotation Yrotation Zrotation
								End Site
								{
									OFFSET 0.000000 15.991302 0.000000
								}
							}
						}
						JOINT newVegas:Right_CapeA
						{
							OFFSET -5.115540 -8.608795 -10.395824
							CHANNELS 3 Xrotation Yrotation Zrotation
							JOINT newVegas:Right_CapeA1
							{
								OFFSET 0.000000 -8.688499 0.000000
								CHANNELS 3 Xrotation Yrotation Zrotation
								End Site
								{
									OFFSET 0.000000 8.688499 0.000000
								}
							}
						}
						JOINT newVegas:Right_CapeB
						{
							OFFSET -26.118187 -8.608795 -7.079266
							CHANNELS 3 Xrotation Yrotation Zrotation
							JOINT newVegas:Right_CapeB1
							{
								OFFSET 0.000000 -8.688499 0.000000
								CHANNELS 3 Xrotation Yrotation Zrotation
								End Site
								{
									OFFSET 0.000000 8.688499 0.000000
								}
							}
						}
					}
				}
				JOINT newVegas:Left_Collar
				{
					OFFSET 18.625099 8.655502 8.828100
					CHANNELS 3 Xrotation Yrotation Zrotation
					JOINT newVegas:Left_Collar1
					{
						OFFSET 14.783401 10.540405 -1.259500
						CHANNELS 3 Xrotation Yrotation Zrotation
						End Site
						{
							OFFSET 0.000000 18.199875 0.000000
						}
					}
				}
				JOINT newVegas:Collar_Back
				{
					OFFSET 0.000000 15.630707 -20.132601
					CHANNELS 3 Xrotation Yrotation Zrotation
					End Site
					{
						OFFSET 0.000000 22.523010 0.000000
					}
				}
				JOINT newVegas:Left_Peck
				{
					OFFSET 17.239599 -5.132599 25.482599
					CHANNELS 3 Xrotation Yrotation Zrotation
					End Site
					{
						OFFSET 0.000000 22.523010 0.000000
					}
				}
				JOINT newVegas:Right_Peck
				{
					OFFSET -17.239599 -5.132202 25.482599
					CHANNELS 3 Xrotation Yrotation Zrotation
					End Site
					{
						OFFSET 0.000000 22.523010 0.000000
					}
				}
				JOINT newVegas:Right_Collar
				{
					OFFSET -18.625099 8.655792 8.828100
					CHANNELS 3 Xrotation Yrotation Zrotation
					JOINT newVegas:Right_Collar1
					{
						OFFSET -14.783401 10.539993 -1.259500
						CHANNELS 3 Xrotation Yrotation Zrotation
						End Site
						{
							OFFSET 0.000000 18.199631 0.000000
						}
					}
				}
			}
		}
		JOINT newVegas:Belly
		{
			OFFSET 0.000000 -6.540398 9.014299
			CHANNELS 3 Xrotation Yrotation Zrotation
			End Site
			{
				OFFSET 0.000000 11.566666 0.000000
			}
		}
	}
	JOINT newVegas:ElvisFacialAnim_Joint
	{
		OFFSET 1.000000 -95.330101 -8.825800
		CHANNELS 3 Xrotation Yrotation Zrotation
		End Site
		{
			OFFSET 0.000000 35.315800 0.000000
		}
	}
}
MOTION
Frames: 4
Frame Time: 0.016667
-0.992546 91.193176 2.213707 -23.094744 -5.673357 -1.488115 0.000001 0.000000 0.000000 -103.045821 -0.962482 32.040349 129.661374 -21.804450 -0.182262 -21.441917 -1.429361 8.538975 -0.000000 0.000000 0.000000 0.000000 -0.000000 0.000002 -123.064764 7.403910 -35.152054 131.578540 23.211370 -1.435573 -9.785957 -1.808688 6.483646 0.000002 -0.000001 -0.000001 -0.000001 -0.000000 -0.000001 7.682409 -0.983205 -0.704551 15.374080 -1.676405 -0.551058 15.374078 -1.676406 -0.551058 -2.358228 0.515285 0.060648 -2.358217 0.515286 0.060647 0.000001 0.000001 -0.000000 -2.358227 0.515286 0.060648 -2.358158 0.515288 0.060647 0.000000 -0.000001 0.000000 0.000001 0.000001 -0.000000 -0.117973 -1.799431 36.289434 -52.783220 -25.523889 -11.661697 -14.599476 -27.801838 2.187906 12.414553 -2.032451 43.220460 -11.360173 -10.015402 28.397698 19.621095 23.755287 -10.341706 0.000000 -0.000001 -0.000001 -7.847192 -3.444997 -67.091227 -4.891797 2.725196 -36.316485 0.000000 0.000000 0.000001 -10.129935 -3.870851 -67.774266 -1.764490 1.724499 -28.158835 -0.000001 -0.000000 -0.000000 -15.177626 7.295111 -70.201641 7.766220 -0.421190 -31.520053 -0.000002 0.000001 0.000003 -16.484503 5.444230 -74.872595 8.342033 -0.189862 -18.882666 -0.000001 0.000002 -0.000001 0.000000 0.000000 -0.000003 0.000000 0.000000 -0.000003 0.000000 0.000000 -0.000003 -0.000000 0.000003 0.000001 -0.000001 0.000002 -0.000003 -0.000000 0.000003 0.000001 -0.000000 0.000003 0.000001 9.813670 24.196319 -37.946062 -46.242184 23.161322 -4.673684 -22.075475 26.224108 3.020025 0.654849 10.544260 -45.154596 15.333573 1.500903 -10.491447 -10.396779 -3.067637 -10.223938 0.000000 -0.000002 -0.000001 0.919900 3.496412 64.452192 1.728449 9.563313 38.865972 -0.000002 0.000001 0.000000 -6.652415 -3.924320 64.485708 9.406005 5.988779 38.253642 0.000001 0.000003 0.000001 -5.546330 1.390198 64.784809 0.228433 -1.796005 39.151618 -0.000000 0.000001 -0.000003 -17.806344 -16.572320 61.043306 25.318647 3.855912 27.748784 0.000001 0.000003 -0.000001 -0.000000 0.000000 0.000001 -0.000000 -0.000001 0.000003 -0.000000 -0.000000 0.000001 -0.000001 0.000000 0.000005 -0.000002 0.000001 0.000003 -0.000001 0.000000 0.000005 -0.000001 0.000001 0.000005 0.000001 -0.000000 0.000000 0.000001 -0.000000 0.000000 0.000001 -0.000000 0.000000 0.000001 -0.000000 0.000000 0.000001 -0.000000 0.000000 0.000001 -0.000000 0.000000 0.000001 -0.000000 0.000000 0.000002 -0.000000 -0.000000 0.000001 0.000000 0.000000 
-1.025906 90.908150 2.266693 -22.810171 -5.651366 -1.484030 -0.000001 -0.000000 -0.000000 -103.672935 -1.279670 31.770413 130.016804 -21.644268 -0.188343 -21.721958 -1.331123 8.311062 0.000002 0.000000 0.000001 0.000000 0.000000 0.000002 -123.469193 7.681398 -34.665918 131.773118 23.307665 -1.408021 -10.282606 -1.965580 6.874179 -0.000000 -0.000001 -0.000000 0.000000 0.000000 -0.000001 7.631961 -0.957433 -0.675697 15.273328 -1.606445 -0.492266 15.273331 -1.606443 -0.492266 -2.949435 0.536537 0.065282 -2.949442 0.536536 0.065283 0.000000 -0.000000 0.000000 -2.949505 0.536538 0.065283 -2.949355 0.536532 0.065282 0.000001 -0.000001 0.000000 0.000000 -0.000000 0.000000 -0.463119 -1.070546 36.646110 -52.830861 -25.294839 -12.145897 -14.734620 -28.465353 2.458224 11.791884 -2.162985 40.907584 -11.360192 -10.015407 28.397707 19.621122 23.755270 -10.341710 0.000000 -0.000000 -0.000005 -7.847197 -3.445013 -67.091227 -4.891819 2.725231 -36.316485 -0.000001 -0.000001 -0.000001 -10.129918 -3.870877 -67.774287 -1.764526 1.724327 -28.158817 -0.000000 -0.000000 -0.000000 -15.177616 7.295063 -70.201641 7.766220 -0.421211 -31.520059 -0.000001 -0.000001 0.000000 -16.484504 5.444137 -74.872602 8.341962 -0.189798 -18.882671 -0.000001 0.000002 0.000002 -0.000000 0.000000 -0.000002 -0.000000 0.000000 -0.000002 -0.000000 -0.000000 -0.000002 -0.000000 0.000001 0.000001 -0.000001 0.000000 -0.000001 -0.000000 0.000001 0.000001 -0.000000 -0.000000 0.000001 9.574057 23.264850 -38.203444 -46.458165 23.286034 -4.045073 -21.711691 26.550163 2.475558 0.014071 10.416164 -45.533330 15.333568 1.500905 -10.491453 -10.396776 -3.067638 -10.223938 0.000001 0.000001 0.000001 0.919898 3.496419 64.452185 1.728494 9.563372 38.865962 0.000001 0.000000 -0.000000 -6.652436 -3.924332 64.485687 9.406016 5.988767 38.253636 0.000001 0.000002 -0.000000 -5.546350 1.390199 64.784781 0.228524 -1.795963 39.151631 -0.000001 -0.000001 0.000001 -17.806368 -16.572327 61.043299 25.318820 3.856008 27.748784 0.000001 -0.000000 -0.000000 -0.000001 -0.000001 0.000000 -0.000000 -0.000000 0.000000 -0.000000 -0.000000 0.000002 0.000002 -0.000002 0.000001 0.000001 -0.000001 0.000002 0.000002 -0.000002 0.000001 0.000001 -0.000001 0.000003 0.000002 0.000000 -0.000000 0.000002 0.000000 -0.000000 0.000002 0.000000 -0.000000 0.000002 0.000000 -0.000000 0.000002 0.000000 -0.000000 0.000002 0.000000 -0.000000 0.000002 0.000000 -0.000000 0.000000 0.000001 0.000000 -0.000001 -0.000000 -0.000000 
-1.051380 90.711639 2.292843 -22.412398 -5.613458 -1.497277 -0.000003 -0.000000 -0.000000 -104.445484 -1.493842 31.436246 130.254740 -21.317816 -0.174948 -21.735294 -1.248284 8.176308 -0.000001 -0.000000 0.000000 -0.000000 -0.000000 0.000002 -123.931651 7.836341 -34.130500 131.852977 23.221813 -1.382515 -10.566638 -2.088167 7.146720 0.000002 -0.000001 0.000000 -0.000000 0.000000 -0.000000 7.515034 -0.931605 -0.636081 15.039634 -1.534572 -0.418302 15.039639 -1.534572 -0.418302 -3.549975 0.559651 0.090068 -3.549979 0.559652 0.090067 0.000000 0.000001 0.000000 -3.550048 0.559648 0.090069 -3.549895 0.559653 0.090066 -0.000000 -0.000001 -0.000000 0.000000 0.000001 -0.000000 -0.794090 -0.411284 37.037643 -53.107361 -25.119651 -13.105110 -14.758150 -28.996677 2.732946 11.472774 -2.333852 38.824646 -11.360193 -10.015416 28.397712 19.621122 23.755278 -10.341702 -0.000000 -0.000000 -0.000003 -7.847216 -3.445010 -67.091220 -4.891837 2.725252 -36.316485 -0.000001 0.000000 0.000001 -10.129904 -3.870910 -67.774273 -1.764542 1.724206 -28.158809 0.000000 0.000001 0.000003 -15.177585 7.295022 -70.201647 7.766215 -0.421212 -31.520053 -0.000002 -0.000001 0.000001 -16.484474 5.444054 -74.872588 8.341900 -0.189691 -18.882678 -0.000000 0.000000 0.000000 0.000000 0.000000 0.000001 0.000000 0.000000 0.000001 -0.000000 -0.000000 0.000001 -0.000001 -0.000001 0.000003 -0.000001 -0.000002 0.000001 -0.000001 -0.000001 0.000003 -0.000001 -0.000002 0.000003 9.273472 22.311025 -38.387897 -46.870899 23.501725 -2.942167 -21.212578 27.007446 1.920320 -0.431568 10.107014 -45.634854 15.333570 1.500907 -10.491431 -10.396775 -3.067638 -10.223938 0.000000 -0.000001 -0.000002 0.919901 3.496457 64.452199 1.728569 9.563382 38.865952 -0.000001 -0.000000 -0.000002 -6.652431 -3.924319 64.485694 9.406003 5.988765 38.253639 -0.000000 0.000002 -0.000000 -5.546329 1.390182 64.784802 0.228592 -1.795837 39.151611 -0.000000 -0.000001 0.000000 -17.806361 -16.572320 61.043313 25.318977 3.856109 27.748769 0.000001 -0.000002 -0.000000 -0.000000 0.000000 -0.000002 -0.000000 0.000000 -0.000002 0.000000 0.000000 -0.000002 -0.000002 0.000000 0.000002 -0.000003 0.000001 0.000002 -0.000002 0.000000 0.000002 -0.000003 0.000001 0.000003 0.000001 -0.000000 -0.000000 0.000001 -0.000000 -0.000000 0.000001 -0.000000 -0.000000 0.000001 -0.000000 -0.000000 0.000001 -0.000000 -0.000000 0.000001 -0.000000 -0.000000 0.000001 -0.000000 -0.000000 -0.000001 0.000000 0.000000 -0.000003 -0.000000 -0.000000 
-1.072605 90.586166 2.301674 -21.941880 -5.573023 -1.528298 0.000001 -0.000000 -0.000000 -105.340184 -1.640342 31.062065 130.392765 -20.852892 -0.143594 -21.468695 -1.167715 8.095355 0.000002 0.000000 0.000000 -0.000000 0.000000 0.000003 -124.460786 7.881500 -33.552553 131.844644 22.963350 -1.369046 -10.624816 -2.176086 7.336623 -0.000001 -0.000000 0.000000 -0.000000 -0.000001 -0.000001 7.350627 -0.906632 -0.587298 14.710908 -1.463376 -0.331661 14.710902 -1.463381 -0.331661 -4.143644 0.583224 0.126133 -4.143647 0.583232 0.126134 0.000000 -0.000000 0.000000 -4.143644 0.583222 0.126141 -4.143709 0.583173 0.126151 0.000000 -0.000000 -0.000000 0.000000 -0.000000 0.000000 -1.099286 0.158972 37.454203 -53.530484 -24.931220 -14.399215 -14.700100 -29.457896 3.027303 11.402004 -2.529900 36.882704 -11.360178 -10.015405 28.397683 19.621098 23.755258 -10.341702 0.000002 -0.000003 -0.000006 -7.847206 -3.444990 -67.091241 -4.891879 2.725271 -36.316478 -0.000000 -0.000000 0.000002 -10.129909 -3.870925 -67.774287 -1.764575 1.724051 -28.158814 0.000000 0.000001 -0.000000 -15.177599 7.294998 -70.201647 7.766214 -0.421223 -31.520053 -0.000001 0.000001 0.000001 -16.484457 5.443975 -74.872616 8.341833 -0.189632 -18.882690 -0.000000 0.000002 0.000001 -0.000000 -0.000000 0.000001 -0.000000 -0.000000 0.000001 -0.000000 -0.000000 0.000001 0.000000 0.000001 0.000001 0.000000 0.000000 -0.000000 0.000000 0.000001 0.000001 0.000000 0.000001 0.000002 8.958986 21.389432 -38.537140 -47.400837 23.753707 -1.536021 -20.640014 27.551673 1.343287 -0.735308 9.715912 -45.379043 15.333577 1.500913 -10.491471 -10.396779 -3.067635 -10.223934 0.000001 -0.000002 -0.000001 0.919921 3.496460 64.452192 1.728600 9.563457 38.865935 -0.000002 0.000001 -0.000001 -6.652415 -3.924323 64.485708 9.405997 5.988787 38.253629 0.000001 0.000001 0.000003 -5.546341 1.390184 64.784781 0.228684 -1.795787 39.151635 0.000000 0.000002 -0.000001 -17.806361 -16.572320 61.043306 25.319137 3.856170 27.748760 -0.000000 -0.000002 -0.000000 0.000000 -0.000000 0.000002 -0.000000 0.000000 0.000004 0.000000 0.000000 0.000002 -0.000000 0.000000 -0.000003 -0.000001 0.000000 -0.000001 -0.000000 0.000000 -0.000003 -0.000000 -0.000000 0.000000 -0.000001 -0.000000 0.000000 -0.000001 -0.000000 0.000000 -0.000001 -0.000000 0.000000 -0.000001 -0.000000 0.000000 -0.000001 -0.000000 0.000000 -0.000001 -0.000000 0.000000 -0.000001 -0.000000 0.000000 0.000001 0.000000 0.000000 0.000001 -0.000000 -0.000000 
